<?xml version="1.0" encoding="iso-8859-1"?>
<!-- Generator: Adobe Illustrator 19.0.0, SVG Export Plug-In . SVG Version: 6.00 Build 0)  -->
<svg  version="1.1" id="Layer_1" xmlns="http://www.w3.org/2000/svg" xmlns:xlink="http://www.w3.org/1999/xlink" x="0px" y="0px"
	 viewBox="0 0 512 512" style="enable-background:new 0 0 512 512;" xml:space="preserve">
<g>
	<g>
		<path d="M180,88v336h152V88H180z M196,160c0-2.212,1.788-4,4-4h112c2.212,0,4,1.788,4,4v48c0,2.212-1.788,4-4,4H200
			c-2.212,0-4-1.788-4-4V160z M196,224c0-2.212,1.788-4,4-4h112c2.212,0,4,1.788,4,4v16c0,2.212-1.788,4-4,4H200
			c-2.212,0-4-1.788-4-4V224z M308.172,368H203.84c-4.416,0-8-3.584-8-8c0-4.416,3.584-8,8-8h104.332c4.416,0,8,3.584,8,8
			C316.172,364.416,312.588,368,308.172,368z M308.172,340H203.84c-4.416,0-8-3.584-8-8c0-4.416,3.584-8,8-8h104.332
			c4.416,0,8,3.584,8,8C316.172,336.416,312.588,340,308.172,340z"/>
	</g>
</g>
<g>
	<g>
		<circle cx="427.76" cy="184" r="12"/>
	</g>
</g>
<g>
	<g>
		<path d="M484.008,88H348v336h136.008C499.444,424,512,411.436,512,396V116C512,100.564,499.444,88,484.008,88z M427.752,156
			c15.464,0,28,12.536,28,28s-12.536,28-28,28s-28-12.536-28-28S412.284,156,427.752,156z M427.752,380c-35.288,0-64-28.712-64-64
			c0-35.288,28.712-64,64-64c35.288,0,64,28.712,64,64C491.752,351.288,463.04,380,427.752,380z"/>
	</g>
</g>
<g>
	<g>
		<path d="M427.752,280c-19.852,0-36,16.148-36,36s16.148,36,36,36s36-16.148,36-36S447.6,280,427.752,280z M427.752,332
			c-8.824,0-16-7.176-16-16c0-8.824,7.176-16,16-16c8.824,0,16,7.176,16,16C443.752,324.824,436.576,332,427.752,332z"/>
	</g>
</g>
<g>
	<g>
		<circle cx="84.28" cy="184" r="12"/>
	</g>
</g>
<g>
	<g>
		<path d="M28.008,88C12.572,88,0,100.564,0,116v280c0,15.436,12.572,28,28.008,28H164V88H28.008z M84.264,156
			c15.468,0,28,12.536,28,28s-12.536,28-28,28c-15.464,0-28-12.536-28-28S68.8,156,84.264,156z M84.264,380
			c-35.288,0-64-28.712-64-64c0-35.288,28.712-64,64-64c35.288,0,64,28.712,64,64C148.264,351.288,119.552,380,84.264,380z"/>
	</g>
</g>
<g>
	<g>
		<path d="M84.264,280c-19.848,0-36,16.148-36,36s16.148,36,36,36c19.852,0,36-16.148,36-36S104.116,280,84.264,280z M84.264,332
			c-8.824,0-16-7.176-16-16c0-8.824,7.176-16,16-16c8.824,0,16,7.176,16,16C100.264,324.824,93.088,332,84.264,332z"/>
	</g>
</g>
<g>
</g>
<g>
</g>
<g>
</g>
<g>
</g>
<g>
</g>
<g>
</g>
<g>
</g>
<g>
</g>
<g>
</g>
<g>
</g>
<g>
</g>
<g>
</g>
<g>
</g>
<g>
</g>
<g>
</g>
</svg>
