<svg id="clipboard" height="448pt" viewBox="-24 0 448 448" width="448pt" xmlns="http://www.w3.org/2000/svg">
    <path d="m392 360c-4.417969 0-8 3.582031-8 8s-3.582031 8-8 8-8-3.582031-8-8-3.582031-8-8-8c-3.855469.039062-7.121094 2.851562-7.726562 6.65625l12.671874 25.34375h22.109376l12.671874-25.34375c-.605468-3.804688-3.871093-6.617188-7.726562-6.65625zm0 0"/>
    <path d="m400 168h-48v177.472656c5.15625-1.9375 10.84375-1.9375 16 0v-161.472656h16v161.433594c5.15625-1.9375 10.84375-1.9375 16 0zm0 0"/>
    <path d="m384 424v-16h-16v16c0 4.417969 3.582031 8 8 8s8-3.582031 8-8zm0 0"/>
    <path d="m400 120c0-13.253906-10.746094-24-24-24s-24 10.746094-24 24v8h48zm0 0"/>
    <path d="m352 144h48v8h-48zm0 0"/>
    <path d="m64 120h176v8h-176zm0 0"/>
    <path d="m64 104h176v-8c0-13.253906-10.746094-24-24-24h-24c-4.417969 0-8-3.582031-8-8v-40c0-13.253906-10.746094-24-24-24h-16c-13.253906 0-24 10.746094-24 24v40c0 4.417969-3.582031 8-8 8h-24c-13.253906 0-24 10.746094-24 24zm88-88c13.253906 0 24 10.746094 24 24s-10.746094 24-24 24-24-10.746094-24-24 10.746094-24 24-24zm0 0"/>
    <path d="m160 304h80v64h-80zm0 0"/>
    <path d="m304 104c0-13.253906-10.746094-24-24-24h-27.390625c2.230469 5.039062 3.386719 10.488281 3.390625 16h16c8.835938 0 16 7.164062 16 16v304c0 8.835938-7.164062 16-16 16h-200c-30.914062-.035156-55.964844-25.085938-56-56v-264c0-8.835938 7.164062-16 16-16h16c.003906-5.511719 1.160156-10.960938 3.390625-16h-27.390625c-13.253906 0-24 10.746094-24 24v320c0 13.253906 10.746094 24 24 24h256c13.253906 0 24-10.746094 24-24zm0 0"/>
    <path d="m160 40c0 4.417969-3.582031 8-8 8s-8-3.582031-8-8 3.582031-8 8-8 8 3.582031 8 8zm0 0"/>
    <path d="m48 136v-24h-16v248h32c13.253906 0 24 10.746094 24 24v32h184v-304h-16v24c0 4.417969-3.582031 8-8 8h-192c-4.417969 0-8-3.582031-8-8zm0 72h112v16h-112zm80 128h-80v-16h80zm0-32h-80v-16h80zm128 72c0 4.417969-3.582031 8-8 8h-96c-4.417969 0-8-3.582031-8-8v-80c0-4.417969 3.582031-8 8-8h96c4.417969 0 8 3.582031 8 8zm0-120h-208v-16h208zm-80-80h80v16h-80zm0 32h80v16h-80zm-96-32h80v16h-80zm-16 16h-16v-16h16zm0 0"/>
    <path d="m32 376c.027344 22.082031 17.917969 39.972656 40 40v-32c0-4.417969-3.582031-8-8-8zm0 0"/>
</svg>
