<?xml version="1.0" encoding="iso-8859-1"?>
<!-- Generator: Adobe Illustrator 19.0.0, SVG Export Plug-In . SVG Version: 6.00 Build 0)  -->
<svg version="1.1" xmlns="http://www.w3.org/2000/svg" xmlns:xlink="http://www.w3.org/1999/xlink" x="0px" y="0px"
	 viewBox="0 0 512.002 512.002" style="enable-background:new 0 0 512.002 512.002;" xml:space="preserve">
<g id="home">
	<g>
		<path d="M255.999,82.77c-95.517,0-173.225,77.708-173.225,173.225S160.483,429.22,255.999,429.22s173.225-77.708,173.225-173.225
			S351.516,82.77,255.999,82.77z M362.037,255.995c0,10.383-1.476,20.543-4.398,30.325l-94.954-38.511l-56.695-85.322
			c15.318-8.212,32.413-12.53,50.009-12.53C314.469,149.957,362.037,197.526,362.037,255.995z M240.744,251.284l-86.385,35.036
			c-2.92-9.78-4.397-19.94-4.397-30.325c0-32.172,14.491-62.262,39.207-82.329L240.744,251.284z M245.903,408.681
			c-79.691-5.218-142.931-71.701-142.931-152.686s63.24-147.468,142.929-152.686v26.862c-21.366,1.695-41.851,8.749-59.764,20.673
			c-0.002,0.001-0.003,0.002-0.005,0.003c0,0-0.001,0.001-0.002,0.002c-0.002,0.001-0.004,0.003-0.006,0.004
			c-35.289,23.501-56.358,62.806-56.358,105.142c0,16.424,3.107,32.391,9.234,47.453c9.336,23.006,25.13,42.616,45.675,56.71
			c18.265,12.531,39.256,19.926,61.228,21.665V408.681z M161.967,305.029l94.032-38.136l94.032,38.136
			c-18.153,34.929-54.041,57.004-94.032,57.004C216.01,362.033,180.124,339.96,161.967,305.029z M266.098,408.681v-26.858
			c21.972-1.738,42.962-9.133,61.228-21.665c20.545-14.094,36.338-33.704,45.671-56.702l0.002-0.004
			c0.001-0.001,0.002-0.003,0.002-0.003c0.002-0.005,0.003-0.008,0.004-0.012c6.125-15.064,9.23-31.026,9.23-47.442
			c0-66.207-51.234-120.669-116.136-125.831v-26.855c79.689,5.218,142.929,71.701,142.929,152.686S345.787,403.463,266.098,408.681z
			"/>
	</g>
</g>
<g>
	<g>
		<path d="M501.896,198.068h-39.699c-4.595-16.406-11.102-32.131-19.414-46.923l28.06-28.059c3.944-3.944,3.944-10.338,0-14.283
			L403.19,41.152c-3.945-3.943-10.337-3.943-14.283,0l-28.059,28.06c-14.791-8.311-30.518-14.819-46.923-19.414V10.099
			C313.925,4.522,309.403,0,303.827,0h-95.657c-5.577,0-10.099,4.522-10.099,10.099v39.699
			c-16.406,4.595-32.132,11.102-46.924,19.415l-28.07-28.062c-3.946-3.944-10.339-3.942-14.282,0.002l-67.641,67.652
			c-3.944,3.944-3.944,10.337,0,14.282l28.06,28.059c-8.311,14.791-14.819,30.518-19.414,46.923H10.103
			c-5.577,0-10.099,4.522-10.099,10.099v95.657c0,5.577,4.522,10.099,10.099,10.099h39.699
			c4.596,16.406,11.102,32.132,19.415,46.924l-28.062,28.069c-3.943,3.944-3.942,10.337,0.001,14.282l67.641,67.642
			c3.945,3.943,10.336,3.945,14.282,0.001l28.07-28.061c14.807,8.322,30.533,14.83,46.924,19.417v39.706
			c0,5.577,4.522,10.099,10.099,10.099h95.657c5.577,0,10.099-4.522,10.099-10.099v-39.706c16.39-4.587,32.116-11.093,46.923-19.417
			l28.059,28.06c3.945,3.943,10.338,3.944,14.282,0l67.652-67.642c3.944-3.943,3.945-10.336,0.002-14.282l-28.062-28.069
			c8.312-14.791,14.819-30.519,19.415-46.924h39.699c5.577,0,10.099-4.522,10.099-10.099v-95.658
			C511.994,202.589,507.473,198.068,501.896,198.068z M454.391,293.725c-4.668,0-8.727,3.199-9.819,7.737
			c-4.751,19.756-12.51,38.507-23.061,55.73c-2.438,3.98-1.831,9.113,1.469,12.416l26.44,26.447l-53.37,53.363l-26.439-26.439
			c-3.301-3.301-8.436-3.91-12.417-1.47c-17.249,10.566-35.997,18.324-55.725,23.06c-4.54,1.09-7.742,5.15-7.742,9.82v37.416
			h-75.459v-37.416c0-4.67-3.201-8.73-7.742-9.82c-19.728-4.735-38.477-12.493-55.725-23.06c-3.979-2.438-9.113-1.831-12.416,1.469
			l-26.448,26.441l-53.362-53.363l26.441-26.447c3.3-3.302,3.907-8.436,1.469-12.415c-10.55-17.224-18.309-35.973-23.061-55.73
			c-1.092-4.537-5.151-7.737-9.819-7.737H20.2v-75.46h37.406c4.668,0,8.727-3.199,9.819-7.738
			c4.751-19.755,12.51-38.506,23.061-55.729c2.439-3.981,1.831-9.114-1.47-12.417l-26.439-26.439l53.362-53.37l26.447,26.44
			c3.303,3.3,8.436,3.908,12.416,1.469c17.224-10.55,35.974-18.309,55.729-23.061c4.538-1.092,7.738-5.151,7.738-9.819V20.198
			h75.459v37.406c0,4.668,3.199,8.727,7.738,9.819c19.755,4.752,38.506,12.51,55.729,23.061c3.98,2.439,9.114,1.831,12.417-1.47
			l26.438-26.438l53.37,53.37l-26.438,26.438c-3.301,3.302-3.909,8.436-1.47,12.417c10.55,17.224,18.309,35.974,23.061,55.729
			c1.092,4.538,5.151,7.738,9.819,7.738h37.406v75.458H454.391z"/>
	</g>
</g>
<g>
</g>
<g>
</g>
<g>
</g>
<g>
</g>
<g>
</g>
<g>
</g>
<g>
</g>
<g>
</g>
<g>
</g>
<g>
</g>
<g>
</g>
<g>
</g>
<g>
</g>
<g>
</g>
<g>
</g>
<g>
</g>
<g>
</g>

<g id="city">
	    <path d="m167.433594 224-24-24h-77.433594c-2.667969 15.890625-2.667969 32.109375 0 48h77.433594zm0 0"/>
	<path d="m166.054688 248h7.425781c-.816407-1.710938-1.546875-3.464844-2.183594-5.246094zm0 0"/>
	<path d="m69.265625 264c3.726563 14.4375 9.46875 28.277344 17.054687 41.113281l41.113282-41.113281zm0 0"/>
	<path d="m86.320312 142.886719c-7.585937 12.835937-13.328124 26.675781-17.054687 41.113281h58.167969zm0 0"/>
	<path d="m200 304.566406v77.433594c15.890625 2.667969 32.109375 2.667969 48 0v-77.433594l-24-24zm0 0"/>
	<path d="m184 378.734375v-58.167969l-41.105469 41.113282c12.835938 7.585937 26.671875 13.328124 41.105469 17.054687zm0 0"/>
	<path d="m95.34375 318.710938c9.554688 12.949218 20.996094 24.390624 33.945312 33.945312l54.710938-54.710938v-33.945312h-33.945312zm0 0"/>
	<path d="m248 143.433594v-77.433594c-15.890625-2.667969-32.109375-2.667969-48 0v77.433594l24 24zm0 0"/>
	<path d="m200 281.945312 5.238281-5.25c-1.78125-.632812-3.53125-1.359374-5.238281-2.175781zm0 0"/>
	<path d="m248 166.054688-5.238281 5.25c1.789062.640624 3.535156 1.363281 5.238281 2.175781zm0 0"/>
	<path d="m264 69.265625v58.167969l41.113281-41.113282c-12.835937-7.585937-26.675781-13.328124-41.113281-17.054687zm0 0"/>
	<path d="m200 166.0625v7.417969c1.707031-.804688 3.453125-1.53125 5.238281-2.175781zm0 0"/>
	<path d="m184 184v-33.9375l-54.710938-54.71875c-12.949218 9.554688-24.390624 20.996094-33.945312 33.945312l54.710938 54.710938zm0 0"/>
	<path d="m166.054688 200 5.242187 5.246094c.636719-1.78125 1.367187-3.535156 2.183594-5.246094zm0 0"/>
	<path d="m184 69.265625c-14.433594 3.726563-28.269531 9.46875-41.105469 17.054687l41.105469 41.113282zm0 0"/>
	<path d="m280.566406 224-.566406-.601562 24.566406 24.601562h77.433594c2.667969-15.890625 2.667969-32.109375 0-48h-77.433594zm0 0"/>
	<path d="m361.679688 305.113281c7.585937-12.835937 13.328124-26.675781 17.054687-41.113281h-58.167969zm0 0"/>
	<path d="m281.945312 200h-7.425781c.816407 1.710938 1.546875 3.464844 2.183594 5.246094zm0 0"/>
	<path d="m281.945312 248-5.242187-5.246094c-.636719 1.78125-1.367187 3.535156-2.183594 5.246094zm0 0"/>
	<path d="m378.734375 184c-3.726563-14.4375-9.46875-28.277344-17.054687-41.113281l-41.113282 41.113281zm0 0"/>
	<path d="m354.207031 82.902344c-35.34375-32.800782-81.804687-50.992188-130.023437-50.902344-2.625 0-5.246094.046875-7.886719.152344-91.523437 3.671875-167.710937 71.480468-181.964844 161.964844-14.257812 90.480468 37.386719 178.433593 123.347657 210.066406 85.964843 31.632812 182.300781-1.859375 230.097656-79.996094 47.796875-78.140625 33.742187-179.160156-33.570313-241.285156zm-130.207031 317.097656c-97.203125 0-176-78.796875-176-176s78.796875-176 176-176 176 78.796875 176 176c-.109375 97.15625-78.84375 175.890625-176 176zm0 0"/>
	<path d="m224 0c-123.710938 0-224 100.289062-224 224s100.289062 224 224 224 224-100.289062 224-224c-.140625-123.652344-100.347656-223.859375-224-224zm152.855469 365.0625c-37.320313 40.664062-89.355469 64.707031-144.511719 66.769531-2.847656.121094-5.703125.167969-8.542969.167969-82.578125-.078125-157.285156-49-190.375-124.65625-33.085937-75.65625-18.285156-163.722656 37.71875-224.40625 77.90625-84.421875 209.5-89.699219 293.917969-11.792969 84.421875 77.90625 89.699219 209.5 11.792969 293.917969zm0 0"/>
	<path d="m318.710938 95.34375-54.710938 54.710938v33.945312h33.945312l54.710938-54.710938c-9.554688-12.949218-20.996094-24.390624-33.945312-33.945312zm0 0"/>
	<path d="m232 224c0 4.417969-3.582031 8-8 8s-8-3.582031-8-8 3.582031-8 8-8 8 3.582031 8 8zm0 0"/>
	<path d="m264 264v33.945312l54.710938 54.710938c12.949218-9.554688 24.390624-20.996094 33.945312-33.945312l-54.710938-54.710938zm0 0"/>
	<path d="m248 281.945312v-7.425781c-1.707031.816407-3.457031 1.542969-5.238281 2.175781zm0 0"/>
	<path d="m264 378.734375c14.433594-3.726563 28.269531-9.46875 41.105469-17.054687l-41.105469-41.113282zm0 0"/>
	<path d="m224 184c-22.089844 0-40 17.910156-40 40s17.910156 40 40 40 40-17.910156 40-40c-.027344-22.082031-17.917969-39.972656-40-40zm0 64c-13.253906 0-24-10.746094-24-24s10.746094-24 24-24 24 10.746094 24 24-10.746094 24-24 24zm0 0"/>

</g>
</svg>
