<svg width="100%" height="100%" viewBox="0 0 200 200" xmlns="http://www.w3.org/2000/svg">

 <g>
  <title>background</title>
  <rect fill="none" id="canvas_background" height="402" width="582" y="-1" x="-1"/>
 </g>
 <g>
  <title>Layer 1</title>
  <path id="svg_4" fill="#5E889E" d="m156.999,14.894l-24.018,0c0.004,0.152 0.021,0.301 0.021,0.453l0,13.225l19.439,0c2.509,0 4.558,2.047 4.558,4.558l0,116.716l-36.472,36.476l-72.968,0c-2.509,0 -4.558,-2.053 -4.558,-4.558l0,-148.635c0,-2.511 2.049,-4.558 4.558,-4.558l19.444,0l0,-13.224c0,-0.152 0.012,-0.301 0.02,-0.453l-24.023,0c-7.522,0 -13.678,6.156 -13.678,13.678l0,157.75c0.001,7.522 6.157,13.678 13.678,13.678l113.999,0c7.526,0 13.679,-6.156 13.679,-13.679l0,-157.749c0,-7.523 -6.153,-13.678 -13.679,-13.678z"/>
  <path id="svg_7" fill="#5E889E" d="m125.085,149.846c-1.162,0 -2.334,0.447 -3.224,1.338c-0.891,0.886 -1.334,2.057 -1.334,3.224l0,25.466l30.027,-30.027l-25.469,0l0,-0.001z"/>
  <path id="svg_12" fill="#5E889E" d="m73.386,31.761l53.232,0c0.464,0 0.927,-0.181 1.285,-0.541c0.355,-0.354 0.54,-0.817 0.54,-1.281l0,-14.592c0,-1.63 -0.632,-3.263 -1.874,-4.511c-1.246,-1.248 -2.879,-1.87 -4.511,-1.87l-13.095,0c0.001,-4.953 -4.011,-8.966 -8.963,-8.966c-4.95,0 -8.963,4.013 -8.963,8.966l-13.093,0c-1.634,0 -3.265,0.622 -4.515,1.87c-1.238,1.249 -1.871,2.881 -1.871,4.511l0,14.593c0,0.463 0.185,0.927 0.539,1.281c0.358,0.36 0.821,0.54 1.289,0.54zm26.614,-26.971c2.308,0 4.178,1.87 4.178,4.176c0,2.305 -1.87,4.176 -4.178,4.176c-2.306,0 -4.174,-1.871 -4.174,-4.176c0,-2.306 1.868,-4.176 4.174,-4.176z"/>
 </g>
</svg>
