<svg id="dev" fill="#e0e4ff" fill-opacity="1" enable-background="new 0 0 64 64" height="512" viewBox="0 0 64 64" width="512" xmlns="http://www.w3.org/2000/svg"><circle cx="47" cy="22" r="4"/><path d="m39 45c.552 0 1-.449 1-1v-1h-4v2z"/><path d="m29 7h2v6h-2z"/><path d="m54.646 24.361.161-.525 2.193-.6v-2.474l-2.193-.6-.161-.525c-.144-.463-.336-.924-.572-1.369l-.258-.486 1.13-1.979-1.749-1.75-1.979 1.129-.485-.256c-.45-.238-.912-.43-1.371-.572l-.524-.162-.602-2.192h-2.473l-.601 2.193-.524.162c-.459.142-.921.334-1.371.572l-.485.256-1.979-1.129-1.749 1.75 1.13 1.979-.258.486c-.236.445-.429.906-.572 1.369l-.161.525-2.193.6v2.474l2.193.6.161.525c.144.463.336.924.572 1.369l.258.486-1.13 1.979 1.749 1.75 1.979-1.129.485.256c.45.238.912.43 1.371.572l.524.162.602 2.193h2.473l.601-2.193.524-.162c.459-.142.921-.334 1.371-.572l.485-.256 1.979 1.129 1.749-1.75-1.13-1.979.258-.486c.236-.446.428-.907.572-1.37zm-7.646 3.639c-3.309 0-6-2.691-6-6s2.691-6 6-6 6 2.691 6 6-2.691 6-6 6z"/><path d="m55 30.971-1.468 1.468-2.367-1.35c-.227.104-.455.2-.684.286l-.717 2.625h-5.527l-.718-2.625c-.229-.086-.457-.181-.684-.286l-2.367 1.35-3.907-3.908 1.351-2.365c-.104-.226-.2-.455-.286-.685l-2.626-.718v-5.526l2.625-.718c.086-.23.182-.459.286-.685l-1.351-2.365 3.907-3.908 2.367 1.35c.227-.104.455-.2.684-.286l.718-2.625h5.527l.718 2.625c.229.086.457.181.684.286l2.367-1.35 1.468 1.468v-10.029h-46v38h46zm-32-25.971h2v10h-2zm-4 0h2v10h-2zm0 12h2v10h-2zm-2 20c0 1.103-.897 2-2 2h-2c-1.103 0-2-.897-2-2v-6c0-1.103.897-2 2-2h2c1.103 0 2 .897 2 2zm0-12c0 1.103-.897 2-2 2h-2c-1.103 0-2-.897-2-2v-6c0-1.103.897-2 2-2h2c1.103 0 2 .897 2 2zm0-12c0 1.103-.897 2-2 2h-2c-1.103 0-2-.897-2-2v-6c0-1.103.897-2 2-2h2c1.103 0 2 .897 2 2zm8 24c0 1.103-.897 2-2 2h-2c-1.103 0-2-.897-2-2v-6c0-1.103.897-2 2-2h2c1.103 0 2 .897 2 2zm4 2h-2v-10h2zm0-14c0 1.103-.897 2-2 2h-2c-1.103 0-2-.897-2-2v-6c0-1.103.897-2 2-2h2c1.103 0 2 .897 2 2zm4 14h-2v-10h2zm0-12h-2v-10h2zm0-14c0 1.103-.897 2-2 2h-2c-1.103 0-2-.897-2-2v-6c0-1.103.897-2 2-2h2c1.103 0 2 .897 2 2z"/><path d="m13 7h2v6h-2z"/><path d="m13 31h2v6h-2z"/><path d="m25 19h2v6h-2z"/><path d="m21 31h2v6h-2z"/><path d="m13 19h2v6h-2z"/><path d="m18 59h28v2h-28z"/><path d="m58 13h-1v2.029l.439.44-1.351 2.365c.104.226.2.455.286.685l2.626.718v5.526l-2.625.718c-.086.23-.182.459-.286.685l1.351 2.365-.44.44v12.029h4v-25c0-1.654-1.346-3-3-3z"/><path d="m28 51h8v6h-8z"/><path d="m30 43h4v2h-4z"/><path d="m20.236 55c-.381 0-.724.212-.895.553l-.723 1.447h7.382v-2z"/><path d="m25 45h3v-2h-4v1c0 .551.448 1 1 1z"/><path d="m42 44c0 1.654-1.346 3-3 3h-14c-1.654 0-3-1.346-3-3v-1h-19v3c0 1.654 1.346 3 3 3h52c1.654 0 3-1.346 3-3v-3h-19z"/><path d="m7 13h-1c-1.654 0-3 1.346-3 3v25h4z"/><path d="m43.764 55h-5.764v2h7.382l-.724-1.447c-.171-.341-.513-.553-.894-.553z"/></svg>
