<?xml version="1.0" encoding="iso-8859-1"?>
<!-- Generator: Adobe Illustrator 19.0.0, SVG Export Plug-In . SVG Version: 6.00 Build 0)  -->
<svg version="1.1" id="home" xmlns="http://www.w3.org/2000/svg" xmlns:xlink="http://www.w3.org/1999/xlink" x="0px" y="0px"
	 viewBox="0 0 512.002 512.002" style="enable-background:new 0 0 512.002 512.002;" xml:space="preserve">
<g class="gear-home">
	<g>
		<path d="M255.999,82.77c-95.517,0-173.225,77.708-173.225,173.225S160.483,429.22,255.999,429.22s173.225-77.708,173.225-173.225
			S351.516,82.77,255.999,82.77z M362.037,255.995c0,10.383-1.476,20.543-4.398,30.325l-94.954-38.511l-56.695-85.322
			c15.318-8.212,32.413-12.53,50.009-12.53C314.469,149.957,362.037,197.526,362.037,255.995z M240.744,251.284l-86.385,35.036
			c-2.92-9.78-4.397-19.94-4.397-30.325c0-32.172,14.491-62.262,39.207-82.329L240.744,251.284z M245.903,408.681
			c-79.691-5.218-142.931-71.701-142.931-152.686s63.24-147.468,142.929-152.686v26.862c-21.366,1.695-41.851,8.749-59.764,20.673
			c-0.002,0.001-0.003,0.002-0.005,0.003c0,0-0.001,0.001-0.002,0.002c-0.002,0.001-0.004,0.003-0.006,0.004
			c-35.289,23.501-56.358,62.806-56.358,105.142c0,16.424,3.107,32.391,9.234,47.453c9.336,23.006,25.13,42.616,45.675,56.71
			c18.265,12.531,39.256,19.926,61.228,21.665V408.681z M161.967,305.029l94.032-38.136l94.032,38.136
			c-18.153,34.929-54.041,57.004-94.032,57.004C216.01,362.033,180.124,339.96,161.967,305.029z M266.098,408.681v-26.858
			c21.972-1.738,42.962-9.133,61.228-21.665c20.545-14.094,36.338-33.704,45.671-56.702l0.002-0.004
			c0.001-0.001,0.002-0.003,0.002-0.003c0.002-0.005,0.003-0.008,0.004-0.012c6.125-15.064,9.23-31.026,9.23-47.442
			c0-66.207-51.234-120.669-116.136-125.831v-26.855c79.689,5.218,142.929,71.701,142.929,152.686S345.787,403.463,266.098,408.681z
			"/>
	</g>
</g>
<g>
	<g>
		<path d="M501.896,198.068h-39.699c-4.595-16.406-11.102-32.131-19.414-46.923l28.06-28.059c3.944-3.944,3.944-10.338,0-14.283
			L403.19,41.152c-3.945-3.943-10.337-3.943-14.283,0l-28.059,28.06c-14.791-8.311-30.518-14.819-46.923-19.414V10.099
			C313.925,4.522,309.403,0,303.827,0h-95.657c-5.577,0-10.099,4.522-10.099,10.099v39.699
			c-16.406,4.595-32.132,11.102-46.924,19.415l-28.07-28.062c-3.946-3.944-10.339-3.942-14.282,0.002l-67.641,67.652
			c-3.944,3.944-3.944,10.337,0,14.282l28.06,28.059c-8.311,14.791-14.819,30.518-19.414,46.923H10.103
			c-5.577,0-10.099,4.522-10.099,10.099v95.657c0,5.577,4.522,10.099,10.099,10.099h39.699
			c4.596,16.406,11.102,32.132,19.415,46.924l-28.062,28.069c-3.943,3.944-3.942,10.337,0.001,14.282l67.641,67.642
			c3.945,3.943,10.336,3.945,14.282,0.001l28.07-28.061c14.807,8.322,30.533,14.83,46.924,19.417v39.706
			c0,5.577,4.522,10.099,10.099,10.099h95.657c5.577,0,10.099-4.522,10.099-10.099v-39.706c16.39-4.587,32.116-11.093,46.923-19.417
			l28.059,28.06c3.945,3.943,10.338,3.944,14.282,0l67.652-67.642c3.944-3.943,3.945-10.336,0.002-14.282l-28.062-28.069
			c8.312-14.791,14.819-30.519,19.415-46.924h39.699c5.577,0,10.099-4.522,10.099-10.099v-95.658
			C511.994,202.589,507.473,198.068,501.896,198.068z M454.391,293.725c-4.668,0-8.727,3.199-9.819,7.737
			c-4.751,19.756-12.51,38.507-23.061,55.73c-2.438,3.98-1.831,9.113,1.469,12.416l26.44,26.447l-53.37,53.363l-26.439-26.439
			c-3.301-3.301-8.436-3.91-12.417-1.47c-17.249,10.566-35.997,18.324-55.725,23.06c-4.54,1.09-7.742,5.15-7.742,9.82v37.416
			h-75.459v-37.416c0-4.67-3.201-8.73-7.742-9.82c-19.728-4.735-38.477-12.493-55.725-23.06c-3.979-2.438-9.113-1.831-12.416,1.469
			l-26.448,26.441l-53.362-53.363l26.441-26.447c3.3-3.302,3.907-8.436,1.469-12.415c-10.55-17.224-18.309-35.973-23.061-55.73
			c-1.092-4.537-5.151-7.737-9.819-7.737H20.2v-75.46h37.406c4.668,0,8.727-3.199,9.819-7.738
			c4.751-19.755,12.51-38.506,23.061-55.729c2.439-3.981,1.831-9.114-1.47-12.417l-26.439-26.439l53.362-53.37l26.447,26.44
			c3.303,3.3,8.436,3.908,12.416,1.469c17.224-10.55,35.974-18.309,55.729-23.061c4.538-1.092,7.738-5.151,7.738-9.819V20.198
			h75.459v37.406c0,4.668,3.199,8.727,7.738,9.819c19.755,4.752,38.506,12.51,55.729,23.061c3.98,2.439,9.114,1.831,12.417-1.47
			l26.438-26.438l53.37,53.37l-26.438,26.438c-3.301,3.302-3.909,8.436-1.47,12.417c10.55,17.224,18.309,35.974,23.061,55.729
			c1.092,4.538,5.151,7.738,9.819,7.738h37.406v75.458H454.391z"/>
	</g>
</g>
<g>
</g>
<g>
</g>
<g>
</g>
<g>
</g>
<g>
</g>
<g>
</g>
<g>
</g>
<g>
</g>
<g>
</g>
<g>
</g>
<g>
</g>
<g>
</g>
<g>
</g>
<g>
</g>
<g>
</g>
<g>
</g>
<g>
</g>
</svg>
