<svg id="city" viewBox="0 0 448 448"  xmlns="http://www.w3.org/2000/svg">
    <path d="m167.433594 224-24-24h-77.433594c-2.667969 15.890625-2.667969 32.109375 0 48h77.433594zm0 0"/>
    <path d="m166.054688 248h7.425781c-.816407-1.710938-1.546875-3.464844-2.183594-5.246094zm0 0"/>
    <path d="m69.265625 264c3.726563 14.4375 9.46875 28.277344 17.054687 41.113281l41.113282-41.113281zm0 0"/>
    <path d="m86.320312 142.886719c-7.585937 12.835937-13.328124 26.675781-17.054687 41.113281h58.167969zm0 0"/>
    <path d="m200 304.566406v77.433594c15.890625 2.667969 32.109375 2.667969 48 0v-77.433594l-24-24zm0 0"/>
    <path d="m184 378.734375v-58.167969l-41.105469 41.113282c12.835938 7.585937 26.671875 13.328124 41.105469 17.054687zm0 0"/>
    <path d="m95.34375 318.710938c9.554688 12.949218 20.996094 24.390624 33.945312 33.945312l54.710938-54.710938v-33.945312h-33.945312zm0 0"/>
    <path d="m248 143.433594v-77.433594c-15.890625-2.667969-32.109375-2.667969-48 0v77.433594l24 24zm0 0"/>
    <path d="m200 281.945312 5.238281-5.25c-1.78125-.632812-3.53125-1.359374-5.238281-2.175781zm0 0"/>
    <path d="m248 166.054688-5.238281 5.25c1.789062.640624 3.535156 1.363281 5.238281 2.175781zm0 0"/>
    <path d="m264 69.265625v58.167969l41.113281-41.113282c-12.835937-7.585937-26.675781-13.328124-41.113281-17.054687zm0 0"/>
    <path d="m200 166.0625v7.417969c1.707031-.804688 3.453125-1.53125 5.238281-2.175781zm0 0"/>
    <path d="m184 184v-33.9375l-54.710938-54.71875c-12.949218 9.554688-24.390624 20.996094-33.945312 33.945312l54.710938 54.710938zm0 0"/>
    <path d="m166.054688 200 5.242187 5.246094c.636719-1.78125 1.367187-3.535156 2.183594-5.246094zm0 0"/>
    <path d="m184 69.265625c-14.433594 3.726563-28.269531 9.46875-41.105469 17.054687l41.105469 41.113282zm0 0"/>
    <path d="m280.566406 224-.566406-.601562 24.566406 24.601562h77.433594c2.667969-15.890625 2.667969-32.109375 0-48h-77.433594zm0 0"/>
    <path d="m361.679688 305.113281c7.585937-12.835937 13.328124-26.675781 17.054687-41.113281h-58.167969zm0 0"/>
    <path d="m281.945312 200h-7.425781c.816407 1.710938 1.546875 3.464844 2.183594 5.246094zm0 0"/>
    <path d="m281.945312 248-5.242187-5.246094c-.636719 1.78125-1.367187 3.535156-2.183594 5.246094zm0 0"/>
    <path d="m378.734375 184c-3.726563-14.4375-9.46875-28.277344-17.054687-41.113281l-41.113282 41.113281zm0 0"/>
    <path d="m354.207031 82.902344c-35.34375-32.800782-81.804687-50.992188-130.023437-50.902344-2.625 0-5.246094.046875-7.886719.152344-91.523437 3.671875-167.710937 71.480468-181.964844 161.964844-14.257812 90.480468 37.386719 178.433593 123.347657 210.066406 85.964843 31.632812 182.300781-1.859375 230.097656-79.996094 47.796875-78.140625 33.742187-179.160156-33.570313-241.285156zm-130.207031 317.097656c-97.203125 0-176-78.796875-176-176s78.796875-176 176-176 176 78.796875 176 176c-.109375 97.15625-78.84375 175.890625-176 176zm0 0"/>
    <path d="m224 0c-123.710938 0-224 100.289062-224 224s100.289062 224 224 224 224-100.289062 224-224c-.140625-123.652344-100.347656-223.859375-224-224zm152.855469 365.0625c-37.320313 40.664062-89.355469 64.707031-144.511719 66.769531-2.847656.121094-5.703125.167969-8.542969.167969-82.578125-.078125-157.285156-49-190.375-124.65625-33.085937-75.65625-18.285156-163.722656 37.71875-224.40625 77.90625-84.421875 209.5-89.699219 293.917969-11.792969 84.421875 77.90625 89.699219 209.5 11.792969 293.917969zm0 0"/>
    <path d="m318.710938 95.34375-54.710938 54.710938v33.945312h33.945312l54.710938-54.710938c-9.554688-12.949218-20.996094-24.390624-33.945312-33.945312zm0 0"/>
    <path d="m232 224c0 4.417969-3.582031 8-8 8s-8-3.582031-8-8 3.582031-8 8-8 8 3.582031 8 8zm0 0"/>
    <path d="m264 264v33.945312l54.710938 54.710938c12.949218-9.554688 24.390624-20.996094 33.945312-33.945312l-54.710938-54.710938zm0 0"/>
    <path d="m248 281.945312v-7.425781c-1.707031.816407-3.457031 1.542969-5.238281 2.175781zm0 0"/>
    <path d="m264 378.734375c14.433594-3.726563 28.269531-9.46875 41.105469-17.054687l-41.105469-41.113282zm0 0"/>
    <path d="m224 184c-22.089844 0-40 17.910156-40 40s17.910156 40 40 40 40-17.910156 40-40c-.027344-22.082031-17.917969-39.972656-40-40zm0 64c-13.253906 0-24-10.746094-24-24s10.746094-24 24-24 24 10.746094 24 24-10.746094 24-24 24zm0 0"/>
</svg>
